# xmcd CD database file
#
# Track frame offsets:
#	150
#	11322
#	21731
#	34256
#	50350
#	62650
#	74962
#	88432
#	105987
#	120841
#	137151
#	150231
#	169701
#	180365
#	194584
#	208316
#	221083
#
# Disc length: 3246 seconds
#
# Revision: 0
# Processed by: cddbd v1.4PL0 Copyright (c) Steve Scherf et al.
# Submitted via: CDex 1.40Beta8
#
DISCID=f60cac11
DTITLE=Aretha Franklin - Experience
DYEAR=1995
DGENRE=Blues
TTITLE0=Respect
TTITLE1=Think
TTITLE2=Chain Of Fools
TTITLE3=I Say A Little Prayer
TTITLE4=A Natural Woman (You Make Me Feel Like)
TTITLE5=I Never Loved A Man (The Way I Loved You)
TTITLE6=Don't Play That Song (You Lied)
TTITLE7=Call Me
TTITLE8=Share Youre Love With Me
TTITLE9=Jesus On The Main Line
TTITLE10=He's All Right
TTITLE11=He Will Wash You White As Snow
TTITLE12=Power
TTITLE13=While The Blood Runs Warm
TTITLE14=Yield Not To Temptation
TTITLE15=This Little Light Of Mine
TTITLE16=The Day Is Past And Gone
EXTD=YEAR: 1995 ID3G: 0
EXTT0=
EXTT1=
EXTT2=
EXTT3=
EXTT4=
EXTT5=
EXTT6=
EXTT7=
EXTT8=
EXTT9=
EXTT10=
EXTT11=
EXTT12=
EXTT13=
EXTT14=
EXTT15=
EXTT16=
PLAYORDER=
